<svg version="1.1" id="Layer_1" xmlns="http://www.w3.org/2000/svg" xmlns:xlink="http://www.w3.org/1999/xlink" x="0px" y="0px"
	 width="100%" viewBox="0 0 125 125" enable-background="new 0 0 125 125" xml:space="preserve">
<path fill="#ffffff" opacity="1.000000" stroke="none" 
	d="
M59.000000,1.000000 
	C61.370556,1.000000 63.741116,1.000000 66.730469,1.340705 
	C76.273140,2.758149 82.500999,7.811131 85.784538,15.798409 
	C90.381226,26.979935 87.317513,36.828171 78.615715,44.787010 
	C82.566750,47.224232 86.544685,49.052910 89.719185,51.807503 
	C93.068359,54.713661 95.885208,55.738701 100.134415,53.665142 
	C104.101921,51.729042 105.951416,53.264820 106.055733,57.764576 
	C106.144196,61.580647 106.073975,65.400398 106.073975,69.416046 
	C111.784500,71.328575 115.716148,75.006569 115.915184,81.141869 
	C116.130066,87.765373 112.042084,91.689331 106.074371,93.725243 
	C106.074371,97.376282 105.733284,100.740494 106.154175,104.006516 
	C106.788368,108.927757 104.587318,110.948044 100.145317,112.524971 
	C88.325310,116.721138 76.701706,121.470573 65.000000,126.000000 
	C64.250000,126.000000 63.500000,126.000000 62.175926,125.694641 
	C49.479908,120.887115 37.376049,116.335205 25.223255,111.917915 
	C22.199360,110.818794 20.589598,109.252800 20.856159,105.753601 
	C21.157734,101.794739 20.925701,97.795227 20.925701,93.656700 
	C15.043338,91.791977 11.264743,88.011765 11.078694,81.874870 
	C10.876939,75.219856 15.170852,71.458916 20.925642,69.292679 
	C20.925642,65.637672 20.910313,62.312878 20.928965,58.988281 
	C20.963402,52.850132 22.322803,52.004837 28.137671,53.925873 
	C29.947220,54.523685 32.516888,55.091522 33.909927,54.269245 
	C38.819023,51.371540 43.368298,47.864246 48.154011,44.518311 
	C39.726170,36.787498 36.835869,27.190897 41.074474,16.004791 
	C44.199055,7.758700 51.150608,3.766626 59.000000,1.000000 
M59.969727,93.500237 
	C59.969727,86.869560 59.969727,80.238892 59.969727,73.539383 
	C49.283867,69.558441 38.871681,65.679459 28.319998,61.748508 
	C27.717777,66.062706 27.396408,69.459518 31.383413,71.789314 
	C32.410381,72.389412 32.689610,74.730545 32.814686,76.311256 
	C33.036892,79.119530 32.818970,81.959503 32.894978,84.783257 
	C32.987637,88.225609 31.362421,90.570793 29.533197,93.476204 
	C27.665857,96.442146 29.175720,101.534355 29.207067,105.695709 
	C39.342308,109.460907 49.477547,113.226105 59.969727,117.123909 
	C59.969727,109.119202 59.969727,101.809654 59.969727,93.500237 
M71.105400,115.758011 
	C79.468491,112.558205 87.853691,109.413773 96.168373,106.092758 
	C97.283379,105.647400 98.879082,104.256508 98.823669,103.395363 
	C98.558907,99.280037 100.889488,94.412033 95.683838,91.451385 
	C94.791557,90.943901 94.263031,89.147766 94.215248,87.921646 
	C94.046913,83.602211 94.046547,79.266609 94.241562,74.948837 
	C94.296249,73.738068 94.923584,71.951591 95.831787,71.483292 
	C100.162598,69.250153 98.900894,65.630234 98.776817,61.684853 
	C87.959999,65.737869 77.494835,69.659119 67.030449,73.580078 
	C67.030449,81.152870 67.030449,88.302498 67.030449,95.452126 
	C67.030449,102.529961 67.030449,109.607796 67.030449,117.003075 
	C68.482735,116.549049 69.404999,116.260727 71.105400,115.758011 
M62.675667,8.143774 
	C61.210251,8.440569 59.703793,8.607486 58.286133,9.055421 
	C49.646675,11.785202 44.599010,20.904694 46.864243,29.582090 
	C49.238205,38.676018 58.017673,44.120560 67.098709,42.130386 
	C75.230606,40.348228 81.092117,32.932560 80.770279,24.833853 
	C80.413780,15.863201 73.767578,9.432311 62.675667,8.143774 
M68.083870,50.037464 
	C57.921257,49.073589 48.727543,51.275848 40.325466,58.525257 
	C48.066963,61.437954 55.267776,64.175224 62.500824,66.824509 
	C63.209572,67.084106 64.193123,67.009537 64.919525,66.740364 
	C72.007530,64.113869 79.067940,61.412914 86.578445,58.565491 
	C81.308479,53.628899 75.392700,51.358246 68.083870,50.037464 
M24.629150,86.737289 
	C25.198593,83.430611 25.768036,80.123932 26.384710,76.542984 
	C21.758280,76.311501 18.709049,77.227104 18.253332,81.095551 
	C17.820618,84.768692 20.533281,86.258461 24.629150,86.737289 
M101.093819,84.085678 
	C102.063271,84.946213 103.792839,86.633514 103.889450,86.544693 
	C105.666656,84.910774 108.610405,83.052917 108.595360,81.265259 
	C108.561394,77.228645 105.289597,76.149521 101.093895,76.718246 
	C101.093895,78.999435 101.093895,81.115807 101.093819,84.085678 
z"/>
<path opacity="0.000000" stroke="none" 
	d="
M58.531342,1.000000 
	C51.150608,3.766626 44.199055,7.758700 41.074474,16.004791 
	C36.835869,27.190897 39.726170,36.787498 48.154011,44.518311 
	C43.368298,47.864246 38.819023,51.371540 33.909927,54.269245 
	C32.516888,55.091522 29.947220,54.523685 28.137671,53.925873 
	C22.322803,52.004837 20.963402,52.850132 20.928965,58.988281 
	C20.910313,62.312878 20.925642,65.637672 20.925642,69.292679 
	C15.170852,71.458916 10.876939,75.219856 11.078694,81.874870 
	C11.264743,88.011765 15.043338,91.791977 20.925701,93.656700 
	C20.925701,97.795227 21.157734,101.794739 20.856159,105.753601 
	C20.589598,109.252800 22.199360,110.818794 25.223255,111.917915 
	C37.376049,116.335205 49.479908,120.887115 61.800926,125.694641 
	C41.703178,126.000000 21.406359,126.000000 1.054769,126.000000 
	C1.054769,84.444725 1.054769,42.889366 1.054769,1.000000 
	C20.019590,1.000000 39.041138,1.000000 58.531342,1.000000 
z"/>
<path opacity="0.000000" stroke="none" 
	d="
M65.468658,126.000000 
	C76.701706,121.470573 88.325310,116.721138 100.145317,112.524971 
	C104.587318,110.948044 106.788368,108.927757 106.154175,104.006516 
	C105.733284,100.740494 106.074371,97.376282 106.074371,93.725243 
	C112.042084,91.689331 116.130066,87.765373 115.915184,81.141869 
	C115.716148,75.006569 111.784500,71.328575 106.073975,69.416046 
	C106.073975,65.400398 106.144196,61.580647 106.055733,57.764576 
	C105.951416,53.264820 104.101921,51.729042 100.134415,53.665142 
	C95.885208,55.738701 93.068359,54.713661 89.719185,51.807503 
	C86.544685,49.052910 82.566750,47.224232 78.615715,44.787010 
	C87.317513,36.828171 90.381226,26.979935 85.784538,15.798409 
	C82.500999,7.811131 76.273140,2.758149 67.174629,1.340705 
	C86.631485,1.000000 106.262970,1.000000 125.947227,1.000000 
	C125.947227,42.556896 125.947227,84.113876 125.947227,126.000000 
	C105.980309,126.000000 85.958809,126.000000 65.468658,126.000000 
z"/>
<path opacity="0.000000" stroke="none" 
	d="
M59.969727,94.000168 
	C59.969727,101.809654 59.969727,109.119202 59.969727,117.123909 
	C49.477547,113.226105 39.342308,109.460907 29.207069,105.695709 
	C29.175720,101.534355 27.665857,96.442146 29.533197,93.476204 
	C31.362421,90.570793 32.987637,88.225609 32.894978,84.783257 
	C32.818970,81.959503 33.036892,79.119530 32.814686,76.311256 
	C32.689610,74.730545 32.410381,72.389412 31.383413,71.789314 
	C27.396408,69.459518 27.717777,66.062706 28.319998,61.748508 
	C38.871681,65.679459 49.283867,69.558441 59.969727,73.539383 
	C59.969727,80.238892 59.969727,86.869560 59.969727,94.000168 
z"/>
<path  opacity="0.000000" stroke="none" 
	d="
M70.716331,115.865204 
	C69.404999,116.260727 68.482735,116.549049 67.030449,117.003075 
	C67.030449,109.607796 67.030449,102.529961 67.030449,95.452126 
	C67.030449,88.302498 67.030449,81.152870 67.030449,73.580078 
	C77.494835,69.659119 87.959999,65.737869 98.776817,61.684853 
	C98.900894,65.630234 100.162598,69.250153 95.831787,71.483292 
	C94.923584,71.951591 94.296249,73.738068 94.241562,74.948837 
	C94.046547,79.266609 94.046913,83.602211 94.215248,87.921646 
	C94.263031,89.147766 94.791557,90.943901 95.683838,91.451385 
	C100.889488,94.412033 98.558907,99.280037 98.823669,103.395363 
	C98.879082,104.256508 97.283379,105.647400 96.168373,106.092758 
	C87.853691,109.413773 79.468491,112.558205 70.716331,115.865204 
z"/>
<path opacity="0.000000" stroke="none" 
	d="
M63.087566,8.133162 
	C73.767578,9.432311 80.413780,15.863201 80.770279,24.833853 
	C81.092117,32.932560 75.230606,40.348228 67.098709,42.130386 
	C58.017673,44.120560 49.238205,38.676018 46.864243,29.582090 
	C44.599010,20.904694 49.646675,11.785202 58.286133,9.055421 
	C59.703793,8.607486 61.210251,8.440569 63.087566,8.133162 
z"/>
<path opacity="0.000000" stroke="none" 
	d="
M68.528870,50.079872 
	C75.392700,51.358246 81.308479,53.628899 86.578445,58.565491 
	C79.067940,61.412914 72.007530,64.113869 64.919525,66.740364 
	C64.193123,67.009537 63.209572,67.084106 62.500824,66.824509 
	C55.267776,64.175224 48.066963,61.437954 40.325466,58.525257 
	C48.727543,51.275848 57.921257,49.073589 68.528870,50.079872 
z"/>
<path  opacity="0.000000" stroke="none" 
	d="
M24.225090,86.742401 
	C20.533281,86.258461 17.820618,84.768692 18.253332,81.095551 
	C18.709049,77.227104 21.758280,76.311501 26.384710,76.542984 
	C25.768036,80.123932 25.198593,83.430611 24.225090,86.742401 
z"/>
<path  opacity="0.000000" stroke="none" 
	d="
M101.093857,83.658928 
	C101.093895,81.115807 101.093895,78.999435 101.093895,76.718246 
	C105.289597,76.149521 108.561394,77.228645 108.595360,81.265259 
	C108.610405,83.052917 105.666656,84.910774 103.889450,86.544693 
	C103.792839,86.633514 102.063271,84.946213 101.093857,83.658928 
z"/>
</svg>