<svg version="1.1" id="Layer_1" xmlns="http://www.w3.org/2000/svg" xmlns:xlink="http://www.w3.org/1999/xlink" x="0px" y="0px"
	 width="100%" viewBox="0 0 256 256" enable-background="new 0 0 256 256" xml:space="preserve">
<path fill="#FFFFFF" opacity="0.000000" stroke="none" 
	d="
M124.000000,257.000000 
	C83.035751,257.000000 42.071495,257.000000 1.053622,257.000000 
	C1.053622,171.776840 1.053622,86.553650 1.053622,1.000000 
	C41.686966,1.000000 82.374825,1.000000 123.453934,1.340322 
	C121.602806,3.580695 119.215752,5.335539 117.140480,7.403295 
	C96.724037,27.745733 76.359352,48.140114 55.980164,68.519943 
	C50.561943,73.938332 45.104538,79.318306 39.739597,84.788948 
	C35.740219,88.867126 34.101154,93.684204 36.648129,99.074913 
	C38.618816,103.245895 41.676918,106.053116 46.885246,106.046043 
	C101.694992,105.971588 156.504929,106.028427 211.314468,105.897224 
	C213.532867,105.891907 216.129471,104.865189 217.894119,103.479378 
	C223.686874,98.930206 224.521439,90.854340 217.467941,83.886803 
	C189.572586,56.331478 161.811127,28.640604 134.000000,0.999998 
	C174.964249,1.000000 215.928482,1.000000 256.946350,1.000000 
	C256.946350,86.223129 256.946350,171.446289 256.946350,257.000000 
	C216.313034,257.000000 175.625183,257.000000 134.546066,256.659668 
	C136.397156,254.419312 138.784210,252.664551 140.859482,250.596832 
	C161.275925,230.254395 181.640579,209.859985 202.019745,189.480133 
	C207.437973,184.061752 212.895370,178.681747 218.260345,173.211121 
	C222.259750,169.132935 223.898621,164.315826 221.351898,158.925171 
	C219.381363,154.754059 216.323105,151.946930 211.114838,151.953995 
	C156.305084,152.028412 101.495110,151.971542 46.685558,152.102737 
	C44.467148,152.108063 41.870548,153.134781 40.105904,154.520599 
	C34.313091,159.069855 33.478569,167.145676 40.532036,174.113174 
	C68.427399,201.668503 96.188873,229.359390 124.000000,257.000000 
z"/>
<path fill="#FFFFFF" opacity="1.000000" stroke="none" 
	d="
M133.545898,0.999998 
	C161.811127,28.640604 189.572586,56.331478 217.467941,83.886803 
	C224.521439,90.854340 223.686874,98.930206 217.894119,103.479378 
	C216.129471,104.865189 213.532867,105.891907 211.314468,105.897224 
	C156.504929,106.028427 101.694992,105.971588 46.885246,106.046043 
	C41.676918,106.053116 38.618816,103.245895 36.648129,99.074913 
	C34.101154,93.684204 35.740219,88.867126 39.739597,84.788948 
	C45.104538,79.318306 50.561943,73.938332 55.980164,68.519943 
	C76.359352,48.140114 96.724037,27.745733 117.140480,7.403295 
	C119.215752,5.335539 121.602806,3.580695 123.922592,1.340322 
	C127.030594,1.000000 130.061188,1.000000 133.545898,0.999998 
z"/>
<path fill="#FFFFFF" opacity="1.000000" stroke="none" 
	d="
M124.454109,257.000000 
	C96.188873,229.359390 68.427399,201.668503 40.532036,174.113174 
	C33.478569,167.145676 34.313091,159.069855 40.105904,154.520599 
	C41.870548,153.134781 44.467148,152.108063 46.685558,152.102737 
	C101.495110,151.971542 156.305084,152.028412 211.114838,151.953995 
	C216.323105,151.946930 219.381363,154.754059 221.351898,158.925171 
	C223.898621,164.315826 222.259750,169.132935 218.260345,173.211121 
	C212.895370,178.681747 207.437973,184.061752 202.019745,189.480133 
	C181.640579,209.859985 161.275925,230.254395 140.859482,250.596832 
	C138.784210,252.664551 136.397156,254.419312 134.077408,256.659668 
	C130.969406,257.000000 127.938812,257.000000 124.454109,257.000000 
z"/>
</svg>